<?xml version="1.0" standalone="no"?>
<!DOCTYPE svg PUBLIC "-//W3C//DTD SVG 1.1//EN" "http://www.w3.org/Graphics/SVG/1.1/DTD/svg11.dtd">
<svg width="228mm" height="228mm" viewBox="-114 -114 228 228" xmlns="http://www.w3.org/2000/svg" version="1.1">
<title>OpenSCAD Model</title>
<path d="
M 33.1238,108.723 L 30.9512,95.006 L 38.2683,92.3879 L 47.1397,88.1921 L 55.557,83.147 L 58.6435,80.8579
 L 90.3519,112.566 L 112.566,90.3519 L 80.8579,58.6435 L 83.147,55.557 L 88.1921,47.1397 L 92.3879,38.2683
 L 95.006,30.9512 L 108.723,33.1238 L 113.638,2.09468 L 99.9968,-0.0658417 L 99.5185,-9.80171 L 98.0785,-19.509
 L 95.694,-29.0285 L 95.0583,-30.8052 L 107.429,-37.1082 L 93.1661,-65.1 L 80.7582,-58.7778 L 77.301,-63.4393
 L 70.7107,-70.7107 L 63.4393,-77.301 L 58.7778,-80.7582 L 65.1,-93.1661 L 37.1082,-107.429 L 30.8052,-95.0583
 L 29.0285,-95.694 L 19.509,-98.0785 L 9.80171,-99.5185 L 0.0658417,-99.9968 L -2.09468,-113.638 L -33.1238,-108.723
 L -30.9512,-95.006 L -38.2683,-92.3879 L -47.1397,-88.1921 L -55.557,-83.147 L -58.6435,-80.8579 L -68.4892,-90.7036
 L -90.7036,-68.4892 L -80.8579,-58.6435 L -83.147,-55.557 L -88.1921,-47.1397 L -92.3879,-38.2683 L -95.006,-30.9512
 L -108.723,-33.1238 L -113.638,-2.09468 L -99.9968,0.0658417 L -99.5185,9.80171 L -98.0785,19.509 L -95.694,29.0285
 L -95.0583,30.8052 L -107.429,37.1082 L -93.1661,65.1 L -80.7582,58.7778 L -77.301,63.4393 L -70.7107,70.7107
 L -63.4393,77.301 L -58.7778,80.7582 L -65.1,93.1661 L -37.1082,107.429 L -30.8052,95.0583 L -29.0285,95.694
 L -19.509,98.0785 L -9.80171,99.5185 L -0.0658417,99.9968 L 2.09468,113.638 z
M -6.72241,68.2538 L -13.3801,67.2662 L -19.9089,65.6309 L -26.246,63.3634 L -32.3303,60.4857 L -38.1033,57.0256
 L -43.5093,53.0162 L -48.4963,48.4963 L -53.0162,43.5093 L -57.0256,38.1033 L -60.4857,32.3303 L -63.3634,26.246
 L -65.6309,19.9089 L -67.2662,13.3801 L -68.2538,6.72241 L -68.5841,-0 L -68.2538,-6.72241 L -67.2662,-13.3801
 L -65.6309,-19.9089 L -63.3634,-26.246 L -60.4857,-32.3303 L -57.0256,-38.1033 L -53.0162,-43.5093 L -48.4963,-48.4963
 L -43.5093,-53.0162 L -38.1033,-57.0256 L -32.3303,-60.4857 L -26.246,-63.3634 L -19.9089,-65.6309 L -13.3801,-67.2662
 L -6.72241,-68.2538 L 0,-68.5841 L 6.72241,-68.2538 L 13.3801,-67.2662 L 19.9089,-65.6309 L 26.246,-63.3634
 L 32.3303,-60.4857 L 38.1033,-57.0256 L 43.5093,-53.0162 L 48.4963,-48.4963 L 53.0162,-43.5093 L 57.0256,-38.1033
 L 60.4857,-32.3303 L 63.3634,-26.246 L 65.6309,-19.9089 L 67.2662,-13.3801 L 68.2538,-6.72241 L 68.5841,-0
 L 68.2538,6.72241 L 67.2662,13.3801 L 65.6309,19.9089 L 63.3634,26.246 L 60.4857,32.3303 L 58.2593,36.0449
 L 28.855,6.64056 L 6.64056,28.855 L 36.0449,58.2593 L 32.3303,60.4857 L 26.246,63.3634 L 19.9089,65.6309
 L 13.3801,67.2662 L 6.72241,68.2538 L 0,68.5841 z
" stroke="black" fill="#800080" stroke-width="4"/>
</svg>
